<mxfile host="app.diagrams.net" modified="2023-05-23T22:23:18.023Z" agent="Mozilla/5.0 (Windows NT 10.0; Win64; x64) AppleWebKit/537.36 (KHTML, like Gecko) Chrome/112.0.0.0 Safari/537.36 OPR/98.0.0.0 (Edition std-1)" version="21.3.3" etag="kkDpBlAQTPe0bp3DBFRm" type="github">
  <diagram name="Page-1" id="65P-3x1jhkH_KaLRr_ZS">
    <mxGraphModel>
      <root>
        <mxCell id="0" />
        <mxCell id="1" parent="0" />
      </root>
    </mxGraphModel>
  </diagram>
</mxfile>
